#!OML:ASF H:\Martial Arts Walks\Project 1\Capture day 1\Session 1\male.ASF
:FULLY-SPECIFIED
:DEGREES
1013
root -5.94517 14.2877 16.802 6.22329 18.157 3.19519
lowerback 11.1924 1.32918 -8.32935
upperback -2.15029 0.652773 0.87301
thorax -8.7498 0.771068 5.52964
lowerneck -0.458184 -7.51251 -9.73754
upperneck 5.61064 -10.3184 8.75467
head 2.70011 -5.1376 3.86954
rclavicle 2.95692e-014 3.18055e-015
rhumerus -21.4279 24.3915 -63.3237
rradius 88.7972
rwrist 1.24405
rhand -22.2985 -40.2345
rfingers 7.12502
rthumb 4.12053 -70.1744
lclavicle 2.95692e-014 3.18055e-015
lhumerus -31.1048 -33.1078 92.6491
lradius 104.211
lwrist 36.4688
lhand -8.75878 8.08528
lfingers 7.12502
lthumb 17.1786 37.3459
rfemur -60.4048 -18.8405 15.193
rtibia 70.7871
rfoot -11.7847 20.0185
rtoes 16.9103
lfemur 7.18106 5.93814 -9.84077
ltibia 38.9573
lfoot -29.1246 33.5047
ltoes -16.3613
1014
root -5.94886 14.272 16.811 6.24346 18.1181 3.25108
lowerback 11.1445 1.34688 -8.43841
upperback -2.19856 0.660604 0.840787
thorax -8.7786 0.782378 5.55511
lowerneck -0.36652 -7.51379 -9.73044
upperneck 5.6145 -10.3289 8.7666
head 2.68749 -5.14462 3.8752
rclavicle 5.85918e-014 1.78906e-015
rhumerus -21.7829 24.3789 -63.5041
rradius 88.7219
rwrist 1.23104
rhand -22.1931 -40.1591
rfingers 7.12502
rthumb 4.22226 -70.097
lclavicle 5.85918e-014 1.78906e-015
lhumerus -31.3134 -33.0714 92.7399
lradius 104.306
lwrist 36.4827
lhand -8.65805 8.14094
lfingers 7.12502
lthumb 17.2756 37.3931
rfemur -60.5481 -18.8027 15.1576
rtibia 71.0437
rfoot -11.9266 19.9868
rtoes 17.147
lfemur 7.16934 6.02949 -9.83911
ltibia 39.0613
lfoot -29.1996 33.5195
ltoes -16.3085
1015
root -5.95047 14.2577 16.8233 6.16976 18.0823 3.31587
lowerback 11.1294 1.36058 -8.53816
upperback -2.14624 0.6662 0.817081
thorax -8.71521 0.784979 5.58501
lowerneck -0.48089 -7.52523 -9.78754
upperneck 5.64184 -10.3394 8.82988
head 2.72157 -5.14674 3.89728
rclavicle 2.77553e-014 -1.2921e-014
rhumerus -21.9441 24.2757 -63.6263
rradius 88.6358
rwrist 1.42962
rhand -21.8982 -40.58
rfingers 7.12502
rthumb 4.50709 -70.5121
lclavicle 2.77553e-014 -1.2921e-014
lhumerus -31.1825 -33.0319 92.7044
lradius 104.192
lwrist 36.5197
lhand -8.6293 7.97162
lfingers 7.12502
lthumb 17.3032 37.2213
rfemur -60.5647 -18.8083 15.0789
rtibia 71.2865
rfoot -12.016 20.0394
rtoes 17.2816
lfemur 7.29419 6.08903 -9.85541
ltibia 39.1238
lfoot -29.2168 33.6162
ltoes -16.381
1016
root -5.94759 14.2452 16.8376 5.96237 18.3087 3.35133
lowerback 11.2171 1.28403 -8.49276
upperback -2.07309 0.56209 0.780935
thorax -8.66679 0.726516 5.53953
lowerneck -0.520293 -7.53216 -9.77063
upperneck 5.68667 -10.3484 8.82852
head 2.74127 -5.14982 3.89138
rclavicle 4.12478e-015 7.95139e-016
rhumerus -22.1459 24.2418 -63.804
rradius 88.487
rwrist 1.44281
rhand -21.9274 -40.532
rfingers 7.12502
rthumb 4.47886 -70.4646
lclavicle 4.12478e-015 7.95139e-016
lhumerus -31.2971 -32.9375 92.7106
lradius 104.26
lwrist 36.4812
lhand -8.50411 8.0309
lfingers 7.12502
lthumb 17.4237 37.27
rfemur -60.3117 -19.0996 14.9804
rtibia 71.5118
rfoot -12.2548 20.0777
rtoes 17.1687
lfemur 7.51175 5.91016 -9.79863
ltibia 39.166
lfoot -29.3011 33.6481
ltoes -16.401
1017
root -5.94852 14.2317 16.8478 5.97925 18.1058 3.40205
lowerback 11.0747 1.35164 -8.60259
upperback -2.09737 0.645789 0.737202
thorax -8.62661 0.770364 5.53854
lowerneck -0.40722 -7.53029 -9.80262
upperneck 5.69837 -10.3586 8.88011
head 2.73152 -5.15707 3.9158
rclavicle -6.49032e-014 9.93923e-016
rhumerus -22.3792 24.1999 -63.9777
rradius 88.3352
rwrist 1.35246
rhand -21.8282 -40.4851
rfingers 7.12502
rthumb 4.57468 -70.4157
lclavicle -6.49032e-014 9.93923e-016
lhumerus -31.3868 -32.9249 92.7606
lradius 104.228
lwrist 36.4483
lhand -8.49153 7.95028
lfingers 7.12502
lthumb 17.4358 37.1883
rfemur -60.4772 -18.9646 14.9538
rtibia 71.7165
rfoot -12.2877 20.1451
rtoes 17.0089
lfemur 7.61413 6.07151 -9.85424
ltibia 39.181
lfoot -29.4178 33.7051
ltoes -16.2468
1018
root -5.94731 14.215 16.8604 5.8612 17.9942 3.40978
lowerback 11.0402 1.38319 -8.64541
upperback -2.05636 0.685627 0.7209
thorax -8.56884 0.787399 5.53774
lowerneck -0.45297 -7.54625 -9.78335
upperneck 5.77139 -10.3772 8.8255
head 2.7587 -5.16586 3.89222
rclavicle -3.47376e-014 1.47101e-014
rhumerus -22.6451 24.1038 -64.1484
rradius 88.2996
rwrist 1.47722
rhand -21.6453 -40.5183
rfingers 7.12502
rthumb 4.75123 -70.445
lclavicle -3.47376e-014 1.47101e-014
lhumerus -31.3901 -32.8436 92.7565
lradius 104.153
lwrist 36.394
lhand -8.41859 7.90809
lfingers 7.12502
lthumb 17.506 37.1399
rfemur -60.4458 -18.9177 14.9206
rtibia 71.9217
rfoot -12.4304 20.1772
rtoes 17.0706
lfemur 7.84559 6.15541 -9.82643
ltibia 39.1958
lfoot -29.4929 33.7826
ltoes -16.2861
1019
root -5.94483 14.2038 16.8707 5.72197 17.9185 3.27852
lowerback 11.0361 1.39987 -8.51997
upperback -2.03342 0.727744 0.729907
thorax -8.54519 0.799936 5.46835
lowerneck -0.463521 -7.53264 -9.7972
upperneck 5.80522 -10.3617 8.85635
head 2.77133 -5.1574 3.90352
rclavicle -2.05866e-014 3.97569e-016
rhumerus -22.6756 24.1883 -64.2146
rradius 88.0624
rwrist 1.36998
rhand -21.5166 -40.6745
rfingers 7.12502
rthumb 4.87551 -70.5984
lclavicle -2.05866e-014 3.97569e-016
lhumerus -31.4551 -32.7562 92.786
lradius 104.124
lwrist 36.3033
lhand -8.41455 7.98722
lfingers 7.12502
lthumb 17.5099 37.2187
rfemur -60.4075 -18.8512 15.0249
rtibia 72.0886
rfoot -12.5199 20.2051
rtoes 17.4159
lfemur 8.02934 6.20927 -9.65837
ltibia 39.2223
lfoot -29.5743 33.825
ltoes -16.2137
1020
root -5.94384 14.1891 16.88 5.58363 17.9062 3.21578
lowerback 11.0731 1.39419 -8.49618
upperback -1.98554 0.723653 0.750544
thorax -8.51313 0.794387 5.47805
lowerneck -0.650825 -7.53263 -9.76715
upperneck 5.96241 -10.3508 8.78537
head 2.8426 -5.14804 3.86773
rclavicle 2.09966e-015 1.47101e-014
rhumerus -22.8413 24.1354 -64.3465
rradius 87.9949
rwrist 1.4343
rhand -21.4842 -40.6305
rfingers 7.12502
rthumb 4.90685 -70.5537
lclavicle 2.09966e-015 1.47101e-014
lhumerus -31.5007 -32.5781 92.8143
lradius 104.085
lwrist 36.2072
lhand -8.4705 7.89114
lfingers 7.12502
lthumb 17.4561 37.1274
rfemur -60.332 -18.8419 15.0473
rtibia 72.2592
rfoot -12.6642 20.2189
rtoes 17.3726
lfemur 8.20022 6.22492 -9.52993
ltibia 39.2786
lfoot -29.6407 33.8449
ltoes -16.2187
1021
root -5.94245 14.1777 16.8888 5.4454 17.91 3.17944
lowerback 11.1344 1.4067 -8.46987
upperback -1.99557 0.736554 0.735159
thorax -8.56077 0.801229 5.4438
lowerneck -0.523012 -7.53889 -9.67777
upperneck 5.97233 -10.368 8.71938
head 2.81816 -5.15935 3.83823
rclavicle -6.94007e-014 -1.31198e-014
rhumerus -23.0691 24.0361 -64.4942
rradius 87.8515
rwrist 1.42634
rhand -21.4112 -40.5151
rfingers 7.12502
rthumb 4.97735 -70.4366
lclavicle -6.94007e-014 -1.31198e-014
lhumerus -31.7243 -32.4501 92.9442
lradius 104.055
lwrist 36.1836
lhand -8.42983 7.73916
lfingers 7.12502
lthumb 17.4952 36.9719
rfemur -60.2597 -18.8605 15.0441
rtibia 72.4283
rfoot -12.7638 20.2458
rtoes 17.5383
lfemur 8.36893 6.23305 -9.43594
ltibia 39.3284
lfoot -29.7144 33.8549
ltoes -16.1581
1022
root -5.94133 14.1666 16.8976 5.35513 17.9083 2.98162
lowerback 11.0743 1.392 -8.32562
upperback -1.99215 0.749188 0.808264
thorax -8.52194 0.800571 5.439
lowerneck -0.613884 -7.52144 -9.69411
upperneck 6.1114 -10.3403 8.66336
head 2.86988 -5.14472 3.81935
rclavicle -4.30866e-014 3.53837e-014
rhumerus -23.0887 24.154 -64.5281
rradius 87.6653
rwrist 1.40352
rhand -21.3723 -40.4194
rfingers 7.12502
rthumb 5.01492 -70.3401
lclavicle -4.30866e-014 3.53837e-014
lhumerus -31.8378 -32.314 93.0498
lradius 104.018
lwrist 36.2402
lhand -8.49787 7.92225
lfingers 7.12502
lthumb 17.4297 37.1608
rfemur -60.2573 -18.8083 15.2316
rtibia 72.5793
rfoot -12.9268 20.1851
rtoes 17.499
lfemur 8.42209 6.27312 -9.17578
ltibia 39.413
lfoot -29.8227 33.8475
ltoes -16.1567
1023
root -5.9392 14.1524 16.9104 5.21428 17.9551 3.05986
lowerback 11.1018 1.39131 -8.43936
upperback -1.94578 0.730505 0.796633
thorax -8.48657 0.793786 5.4946
lowerneck -0.500544 -7.5205 -9.70872
upperneck 6.02446 -10.346 8.70124
head 2.82862 -5.14992 3.83883
rclavicle 1.22998e-015 -2.28602e-014
rhumerus -23.238 24.1504 -64.558
rradius 87.6077
rwrist 1.40353
rhand -21.3675 -40.5197
rfingers 7.12502
rthumb 5.01954 -70.4403
lclavicle 1.22998e-015 -2.28602e-014
lhumerus -31.9611 -32.1691 93.1635
lradius 103.988
lwrist 36.315
lhand -8.55429 7.77121
lfingers 7.12502
lthumb 17.3754 37.0146
rfemur -60.1255 -18.9127 15.079
rtibia 72.7662
rfoot -13.0129 20.2847
rtoes 17.6953
lfemur 8.61943 6.27653 -9.18289
ltibia 39.5018
lfoot -29.884 33.9061
ltoes -16.1228
1024
root -5.93927 14.1411 16.919 5.16861 17.9602 3.03302
lowerback 11.0931 1.40693 -8.47349
upperback -1.94592 0.748293 0.808218
thorax -8.48566 0.804423 5.5233
lowerneck -0.503463 -7.53125 -9.68943
upperneck 6.02953 -10.3615 8.7078
head 2.83139 -5.15695 3.83677
rclavicle -6.87795e-014 -3.97569e-015
rhumerus -23.3894 24.0314 -64.6066
rradius 87.5704
rwrist 1.46983
rhand -21.172 -40.5184
rfingers 7.12502
rthumb 5.20829 -70.4344
lclavicle -6.87795e-014 -3.97569e-015
lhumerus -32.0341 -32.1118 93.2669
lradius 103.92
lwrist 36.4662
lhand -8.62105 7.86572
lfingers 7.12502
lthumb 17.3112 37.1147
rfemur -60.1391 -18.9052 15.0904
rtibia 72.9272
rfoot -13.1878 20.2565
rtoes 17.6772
lfemur 8.64379 6.34436 -9.09344
ltibia 39.617
lfoot -29.912 33.9254
ltoes -16.1884
1025
root -5.93866 14.1312 16.9249 5.17144 17.8991 2.86848
lowerback 11.0019 1.42511 -8.37113
upperback -1.97161 0.798823 0.860183
thorax -8.46763 0.825495 5.51226
lowerneck -0.528253 -7.52655 -9.66222
upperneck 6.08736 -10.3549 8.67817
head 2.84913 -5.15301 3.82203
rclavicle -1.06101e-014 -4.37326e-015
rhumerus -23.5128 24.0018 -64.6454
rradius 87.4871
rwrist 1.59641
rhand -21.1821 -40.5039
rfingers 7.12502
rthumb 5.19856 -70.4201
lclavicle -1.06101e-014 -4.37326e-015
lhumerus -32.2475 -31.9674 93.3967
lradius 103.976
lwrist 36.586
lhand -8.6649 7.90326
lfingers 7.12502
lthumb 17.269 37.156
rfemur -60.2559 -18.8015 15.2752
rtibia 73.0649
rfoot -13.2853 20.201
rtoes 17.6284
lfemur 8.59485 6.47693 -8.8847
ltibia 39.7248
lfoot -29.9941 33.9338
ltoes -16.2584
